<?xml version="1.0"?>
<svg xmlns="http://www.w3.org/2000/svg" xmlns:xlink="http://www.w3.org/1999/xlink" version="1.1" viewBox="0 0 192 192" width="50px" height="50px"><g fill="none" fill-rule="nonzero" stroke="none" stroke-width="1" stroke-linecap="butt" stroke-linejoin="miter" stroke-miterlimit="10" stroke-dasharray="" stroke-dashoffset="0" font-family="none" font-weight="none" font-size="none" text-anchor="none" style="mix-blend-mode: normal"><path d="M0,192v-192h192v192z" fill="none"/><g fill="#348334"><path d="M96,7.68c-48.70272,0 -88.32,39.62112 -88.32,88.32c0,48.69888 39.61728,88.32 88.32,88.32c48.70272,0 88.32,-39.62112 88.32,-88.32c0,-48.69888 -39.61728,-88.32 -88.32,-88.32zM26.88,96c0,-15.59808 5.26464,-29.952 14.016,-41.5296l96.6336,96.6336c-11.5776,8.75136 -25.93152,14.016 -41.5296,14.016c-38.112,0 -69.12,-31.008 -69.12,-69.12zM151.104,137.5296l-96.6336,-96.6336c11.5776,-8.75136 25.93152,-14.016 41.5296,-14.016c38.112,0 69.12,31.008 69.12,69.12c0,15.59808 -5.26464,29.952 -14.016,41.5296z"/></g></g></svg>
